<?xml version="1.0" standalone="no"?>
<!DOCTYPE svg PUBLIC "-//W3C//DTD SVG 20010904//EN"
 "http://www.w3.org/TR/2001/REC-SVG-20010904/DTD/svg10.dtd">
<svg version="1.0" xmlns="http://www.w3.org/2000/svg"
 width="1089.000000pt" height="1088.000000pt" viewBox="0 0 1089.000000 1088.000000"
 preserveAspectRatio="xMidYMid meet">

<g transform="translate(0.000000,1088.000000) scale(0.100000,-0.100000)"
fill="#000000" stroke="none">
<path d="M5228 10545 l-213 -324 -265 278 c-146 154 -269 278 -273 277 -5 -1
-76 -159 -158 -351 -83 -192 -152 -351 -153 -353 -2 -2 -144 99 -315 224 -172
124 -314 224 -317 221 -3 -3 -43 -170 -89 -372 -47 -202 -87 -370 -89 -373 -3
-3 -162 70 -352 162 -191 92 -348 166 -349 164 -2 -2 -11 -176 -20 -388 -10
-212 -18 -386 -19 -387 -1 -1 -170 45 -376 102 -206 57 -375 103 -376 102 -1
-1 22 -173 51 -382 28 -209 50 -382 49 -385 -1 -3 -174 10 -384 28 -209 19
-383 33 -385 30 -2 -2 49 -168 114 -368 65 -201 117 -366 116 -368 -1 -2 -173
-18 -381 -37 -209 -20 -382 -36 -386 -38 -4 -1 74 -153 174 -337 99 -184 180
-339 181 -343 1 -5 -164 -55 -368 -111 -203 -56 -369 -107 -368 -112 1 -5 107
-141 235 -302 128 -161 234 -296 235 -300 1 -4 -153 -81 -343 -172 -190 -91
-347 -167 -349 -170 -1 -3 127 -119 286 -258 159 -139 289 -256 288 -260 0 -4
-140 -108 -310 -231 -263 -190 -308 -227 -295 -237 9 -6 158 -96 331 -200 173
-104 314 -192 313 -196 -2 -4 -121 -131 -266 -282 -144 -151 -262 -277 -262
-279 0 -2 162 -64 360 -138 198 -74 360 -138 360 -144 0 -5 -94 -152 -209
-325 -115 -173 -207 -318 -203 -321 4 -4 162 -34 352 -68 427 -76 400 -70 400
-84 -1 -7 -67 -167 -149 -357 l-148 -345 388 -3 c214 -1 389 -6 389 -11 0 -5
-38 -176 -85 -380 -47 -205 -85 -374 -85 -375 0 -1 171 29 381 67 209 38 382
67 384 65 2 -2 -4 -176 -13 -386 -11 -250 -14 -382 -7 -382 6 0 169 59 362
132 194 72 355 129 357 127 3 -3 28 -173 56 -379 28 -206 51 -378 53 -382 1
-3 152 83 336 193 184 110 335 198 336 197 2 -2 56 -167 120 -368 65 -201 119
-367 121 -368 1 -2 128 105 281 239 153 133 285 248 294 256 15 12 35 -21 199
-327 101 -187 187 -339 191 -338 4 2 114 137 244 301 172 216 240 295 249 288
6 -5 115 -140 241 -300 127 -160 233 -290 237 -291 3 0 82 141 174 313 92 171
175 324 184 340 l17 27 293 -255 c161 -141 294 -254 295 -253 2 2 56 167 121
368 65 201 119 367 120 368 2 2 153 -86 336 -196 183 -110 334 -199 335 -198
2 1 26 173 54 382 28 208 53 381 55 383 2 3 167 -57 367 -131 199 -75 363
-135 363 -135 1 1 -6 175 -16 387 -10 212 -16 387 -15 388 2 2 173 -27 379
-64 207 -37 378 -65 381 -62 3 2 -33 172 -80 377 -47 205 -85 374 -85 376 0 3
175 6 389 7 l389 3 -150 352 c-83 194 -149 355 -147 358 3 2 171 34 374 71
204 37 373 69 377 73 4 3 -87 149 -202 324 -116 175 -210 321 -210 325 0 4
162 67 360 141 198 74 359 138 358 142 -2 3 -120 129 -263 279 -143 149 -261
275 -263 279 -1 3 144 94 323 200 179 106 328 197 330 202 3 4 -132 107 -300
229 -167 122 -307 225 -310 230 -3 5 125 122 284 262 160 139 287 256 283 260
-4 3 -158 79 -342 167 -184 89 -337 165 -341 169 -4 4 101 142 232 306 132
165 236 303 232 306 -5 4 -159 49 -343 99 -184 51 -349 97 -366 102 l-31 10
183 342 c101 188 181 343 177 344 -5 2 -178 18 -387 38 -208 19 -379 35 -381
37 -1 2 52 167 117 366 66 200 117 366 114 369 -3 3 -176 -10 -386 -29 l-380
-34 0 21 c0 12 22 185 50 385 27 201 48 365 47 366 -1 1 -169 -44 -372 -100
-204 -57 -373 -100 -376 -97 -3 3 -14 177 -23 385 -9 209 -18 381 -20 383 -2
2 -159 -72 -350 -163 -190 -92 -348 -165 -351 -163 -2 3 -41 168 -86 367 -45
199 -86 367 -90 373 -4 8 -115 -67 -319 -215 -171 -125 -313 -226 -315 -224
-1 2 -69 158 -150 348 -81 190 -151 349 -155 353 -4 5 -126 -116 -271 -267
-145 -152 -266 -276 -270 -276 -4 0 -102 144 -219 320 -116 176 -213 320 -215
320 -1 0 -99 -146 -217 -325z m487 -656 c1121 -73 2115 -518 2885 -1289 699
-699 1145 -1587 1280 -2549 58 -410 47 -912 -30 -1369 -204 -1211 -875 -2264
-1875 -2941 -590 -399 -1270 -652 -2025 -752 -209 -27 -625 -37 -833 -20 -372
32 -714 103 -1082 226 -513 171 -973 418 -1375 739 -259 207 -694 675 -907
977 -246 348 -523 972 -642 1446 -132 526 -169 1139 -101 1668 156 1217 842
2332 1893 3077 230 163 564 348 835 462 455 191 893 293 1422 329 112 8 410 6
555 -4z"/>
<path d="M5165 9434 c-22 -2 -89 -9 -150 -14 -768 -73 -1552 -407 -2135 -909
-780 -672 -1288 -1587 -1405 -2533 -8 -67 -15 -133 -15 -146 l0 -24 323 5
c273 4 336 8 412 25 124 27 205 70 285 151 88 88 138 179 265 475 121 284 160
364 249 514 205 344 494 639 866 884 573 378 1269 539 1949 453 884 -113 1669
-619 2126 -1371 95 -155 161 -297 255 -549 100 -267 134 -335 207 -408 92 -92
217 -141 429 -168 99 -12 599 -17 611 -6 3 4 -2 59 -11 124 -142 987 -540
1769 -1227 2409 -568 529 -1280 887 -2049 1028 -239 44 -390 57 -675 61 -148
2 -288 1 -310 -1z m200 -517 c86 -86 35 -237 -81 -237 -79 0 -124 51 -124 140
0 82 47 129 129 130 36 0 49 -6 76 -33z m239 27 c9 -3 16 -15 16 -25 0 -16 -8
-19 -49 -19 -42 0 -49 -3 -55 -22 -11 -44 -8 -48 39 -48 42 0 45 -2 45 -26 0
-25 -2 -26 -45 -22 l-45 3 0 -53 c0 -52 -1 -53 -27 -50 l-27 3 3 125 c1 68 5
128 7 132 6 9 115 11 138 2z m-604 -43 c0 -15 -10 -20 -50 -26 -51 -7 -55 -12
-44 -53 6 -21 11 -23 47 -17 28 5 42 3 48 -6 15 -24 10 -28 -36 -35 -43 -6
-45 -8 -45 -41 l0 -34 54 6 c45 6 54 4 60 -10 3 -10 5 -19 3 -21 -6 -6 -149
-26 -153 -21 -7 7 -44 250 -39 256 7 7 76 19 118 20 30 1 37 -2 37 -18z m915
-3 c16 -70 45 -223 45 -240 0 -32 -42 -19 -53 17 -5 17 -10 31 -11 32 0 0 -22
4 -47 8 -44 7 -46 6 -58 -23 -10 -23 -17 -28 -37 -24 -13 2 -24 6 -24 9 0 2
25 58 56 124 56 117 58 119 90 119 27 0 35 -5 39 -22z m197 -9 c97 -21 135
-69 125 -156 -4 -38 -12 -54 -42 -81 -37 -34 -38 -35 -108 -29 -38 3 -74 10
-78 14 -6 7 23 210 36 251 5 15 2 15 67 1z m-1312 -19 c0 -15 -9 -22 -30 -26
-35 -8 -35 -5 -10 -114 26 -112 25 -120 -4 -120 -25 0 -32 20 -62 178 -7 32
-9 33 -40 27 -27 -5 -34 -3 -34 10 0 8 0 18 -1 22 0 8 127 40 164 42 11 1 17
-6 17 -19z m1544 -30 c26 -9 26 -11 26 -116 l0 -107 56 89 c31 49 57 90 58 91
5 6 46 -11 46 -19 0 -5 -34 -58 -76 -119 -66 -95 -79 -109 -97 -103 -12 3 -25
9 -28 13 -7 7 -21 281 -14 281 2 0 15 -4 29 -10z m-1746 -100 c27 -111 22
-138 -30 -170 -55 -33 -115 -23 -139 23 -7 12 -22 62 -35 110 -19 74 -20 89
-8 94 28 11 40 -6 58 -81 23 -97 43 -124 82 -111 38 13 41 41 15 141 -11 43
-17 82 -15 86 3 5 15 8 27 6 18 -3 25 -18 45 -98z m-274 13 c7 -16 -8 -33 -31
-33 -24 0 -22 -20 12 -115 19 -53 33 -101 30 -106 -4 -5 -15 -9 -25 -9 -14 0
-24 16 -40 58 -11 31 -28 76 -37 100 -9 24 -21 41 -27 39 -46 -17 -56 -18 -56
-3 0 9 0 19 -1 23 0 7 136 61 157 62 7 1 15 -7 18 -16z m2386 -165 c0 -77 -4
-138 -9 -138 -28 0 -41 15 -41 45 0 30 -3 33 -46 45 -44 13 -47 12 -67 -13
-18 -21 -26 -24 -45 -16 l-24 9 32 42 c17 24 54 75 82 114 52 71 52 71 85 61
l33 -10 0 -139z m-2565 -13 c46 -115 51 -150 18 -143 -12 2 -34 42 -65 118
-44 106 -47 116 -31 128 9 6 20 12 24 12 3 0 28 -52 54 -115z m2756 52 c4 -15
10 -66 14 -113 l8 -87 35 86 c35 86 44 95 71 78 12 -8 6 -29 -33 -123 -26 -62
-52 -117 -56 -122 -5 -5 -19 -2 -34 7 -22 15 -25 25 -31 112 -4 52 -10 95 -14
95 -3 0 -19 -32 -35 -70 -16 -39 -32 -73 -36 -75 -13 -8 -40 6 -40 20 0 10 82
204 96 227 9 15 48 -10 55 -35z m-2877 7 c4 -9 5 -18 4 -18 -2 -1 -15 -7 -30
-14 l-27 -11 41 -101 c34 -84 39 -103 27 -111 -27 -17 -35 -8 -75 89 -28 66
-45 96 -55 93 -32 -9 -54 -5 -57 10 -2 11 17 25 65 47 79 35 98 38 107 16z
m-236 -137 c-18 -4 -39 -15 -45 -24 -21 -27 3 -43 63 -43 41 0 59 -5 74 -20
39 -39 19 -105 -40 -135 -38 -19 -66 -19 -74 1 -11 28 -7 34 22 34 33 0 67 32
59 55 -5 11 -22 15 -66 15 -49 0 -64 4 -81 22 -40 43 -16 103 54 134 28 12 33
11 49 -9 19 -21 19 -22 -15 -30z m3433 -3 c41 -20 52 -39 39 -64 l-11 -21 -30
26 c-57 47 -126 23 -145 -51 -9 -37 21 -82 66 -95 34 -10 38 -14 29 -30 -13
-25 -44 -24 -86 2 -69 43 -82 134 -29 204 40 52 100 63 167 29z m-3541 -163
l64 -104 -23 -19 c-23 -18 -24 -18 -100 23 -42 23 -80 46 -86 50 -27 25 -19 1
21 -63 24 -40 44 -76 44 -80 0 -4 -9 -12 -19 -18 -18 -9 -27 2 -87 102 l-67
111 22 18 c22 18 24 18 79 -13 31 -18 74 -43 96 -56 21 -13 36 -20 33 -15 -2
4 -23 38 -46 76 -46 76 -48 82 -23 96 21 12 15 19 92 -108z m3718 59 c44 -28
60 -44 56 -55 -8 -21 -24 -19 -66 10 l-36 24 -16 -24 c-22 -34 -21 -38 19 -59
19 -11 35 -25 35 -33 0 -24 -28 -25 -61 -2 l-32 22 -18 -24 c-10 -13 -19 -27
-19 -31 0 -4 18 -17 40 -29 40 -23 46 -34 32 -56 -5 -8 -27 1 -74 31 l-67 42
67 112 c37 61 70 112 73 112 3 0 34 -18 67 -40z m169 -112 c25 -18 51 -45 59
-60 45 -87 -21 -198 -119 -198 -31 0 -117 46 -133 72 -6 10 126 218 139 218 5
0 29 -15 54 -32z m-4127 -83 c38 -57 70 -109 70 -114 0 -6 -8 -15 -19 -20 -16
-9 -28 3 -91 100 -70 105 -72 110 -54 124 10 8 20 15 21 15 2 0 34 -47 73
-105z m-242 -107 l7 -73 78 -20 78 -21 -24 -22 -23 -22 -72 20 c-39 11 -74 20
-77 20 -4 0 13 -23 36 -50 41 -48 42 -51 23 -65 -18 -14 -22 -11 -62 33 -24
26 -61 71 -84 100 -39 50 -40 54 -24 70 16 16 20 14 61 -33 l44 -50 -4 35
c-15 130 -15 127 8 143 12 8 24 13 25 12 2 -2 7 -37 10 -77z m4680 -62 c15 -8
38 -26 51 -40 22 -23 23 -29 12 -53 l-12 -27 -20 31 c-24 39 -66 57 -100 45
-66 -26 -85 -105 -35 -148 15 -13 34 -24 42 -24 19 0 18 -14 -4 -33 -16 -15
-20 -15 -50 3 -94 57 -94 183 0 240 39 23 78 25 116 6z m-4857 -43 c12 -14 12
-17 -1 -21 -32 -11 -70 -60 -70 -92 0 -42 47 -90 88 -90 29 0 75 33 84 61 4
12 7 12 21 0 24 -20 21 -33 -16 -69 -64 -62 -142 -61 -196 4 -53 65 -47 139
15 193 39 35 56 38 75 14z m5070 -152 c33 -33 39 -45 39 -81 0 -79 -68 -150
-145 -150 -30 0 -45 8 -76 39 -33 33 -39 45 -39 81 0 79 67 149 144 150 31 0
45 -7 77 -39z m-5207 -117 c105 -52 114 -58 105 -76 -7 -13 -17 -18 -30 -14
-10 3 -27 9 -37 12 -13 4 -27 -5 -46 -31 -25 -32 -27 -40 -17 -62 10 -21 9
-29 -5 -44 -17 -18 -20 -14 -81 102 -60 116 -63 123 -48 145 9 13 22 24 29 24
8 0 66 -25 130 -56z m5374 -64 c14 -23 6 -43 -55 -139 -19 -29 -28 -51 -21
-48 7 3 48 17 92 32 l78 27 21 -21 22 -21 -95 -95 c-72 -72 -97 -92 -107 -83
-22 18 -15 30 50 96 l62 63 -88 -32 c-77 -28 -90 -30 -103 -18 -12 13 -8 24
31 88 25 40 45 75 45 78 0 3 -29 -16 -64 -41 -72 -51 -81 -54 -95 -28 -9 16 4
29 92 90 56 39 107 71 112 72 6 0 16 -9 23 -20z m-5591 -80 c22 -13 34 -29 38
-53 7 -36 29 -47 91 -47 29 0 30 -11 4 -35 -16 -14 -29 -16 -75 -10 -65 8 -74
-7 -25 -43 34 -25 35 -31 18 -55 -12 -16 -23 -9 -115 67 l-102 83 31 43 c26
35 72 68 98 70 3 0 19 -9 37 -20z m-169 -152 c8 -8 7 -17 -7 -37 l-19 -26 89
-64 c76 -55 87 -66 78 -82 -5 -11 -14 -19 -20 -19 -5 0 -47 27 -92 60 l-82 61
-22 -28 c-20 -25 -24 -26 -38 -12 -14 13 -10 22 36 87 28 40 54 72 58 72 4 0
12 -5 19 -12z m5992 -70 c33 -59 37 -93 15 -125 -35 -50 -114 -44 -150 11
l-17 25 -36 -24 c-35 -24 -38 -24 -50 -8 -7 9 -11 21 -10 25 3 9 199 147 210
148 4 0 21 -24 38 -52z m104 -162 c8 -14 8 -20 0 -23 -6 -2 -42 -25 -80 -51
-47 -32 -70 -55 -72 -70 -4 -24 22 -62 42 -62 7 0 49 23 95 51 66 41 85 49 92
38 5 -8 9 -19 9 -26 0 -18 -160 -113 -190 -113 -65 0 -119 89 -94 155 8 19
164 127 178 122 5 -2 14 -11 20 -21z m-6281 -56 c-1 -8 -4 -24 -8 -35 -5 -17
8 -27 84 -69 91 -49 99 -58 82 -85 -10 -15 -33 -6 -158 66 l-42 24 -16 -31
c-13 -26 -19 -29 -36 -20 -19 11 -18 14 22 91 30 57 46 79 58 77 9 -2 15 -10
14 -18z m6440 -226 c21 -41 35 -79 32 -85 -11 -17 -35 -9 -47 15 l-11 25 -98
-50 c-93 -46 -99 -48 -109 -30 -5 11 -10 22 -10 25 0 3 42 27 93 52 50 25 93
48 95 49 2 2 -2 13 -8 25 -6 12 -9 28 -6 36 12 30 33 11 69 -62z m-6449 -11
c106 -53 114 -58 104 -77 -6 -12 -12 -22 -13 -24 -2 -2 -21 6 -44 17 -22 12
-44 21 -49 21 -4 0 -18 -20 -29 -44 l-21 -43 49 -23 c54 -26 55 -28 36 -54
-12 -17 -21 -14 -129 40 -110 55 -115 59 -106 80 10 22 12 23 47 7 63 -27 66
-26 84 12 9 20 17 40 17 45 0 5 -19 19 -42 31 -24 12 -44 23 -46 24 -4 4 17
45 23 45 3 0 56 -26 119 -57z m6503 -184 c-18 -9 -72 -34 -120 -55 -74 -32
-90 -36 -98 -23 -5 7 -9 19 -9 24 0 6 53 33 118 62 117 51 117 51 129 30 10
-20 8 -24 -20 -38z m-6703 -25 c13 -5 11 -12 -11 -41 -37 -48 -36 -97 1 -129
45 -39 107 -31 131 17 20 38 19 44 -10 57 -33 15 -32 16 -38 -8 -6 -22 -14
-24 -35 -11 -11 6 -10 16 4 49 9 23 20 42 25 42 5 0 33 -11 64 -24 48 -22 55
-28 55 -53 -1 -45 -36 -111 -72 -133 -25 -16 -44 -20 -77 -17 -111 12 -162
124 -100 224 21 33 33 38 63 27z m6770 -50 c6 -22 -3 -40 -53 -106 -34 -43
-61 -80 -61 -82 0 -2 36 12 81 31 44 19 82 33 84 31 3 -2 6 -14 7 -26 3 -20
-11 -29 -112 -72 -63 -26 -118 -45 -121 -42 -26 27 -17 52 45 134 l64 85 -76
-33 c-42 -19 -82 -34 -88 -34 -10 0 -28 41 -21 45 14 9 225 94 233 95 7 0 15
-12 18 -26z m-6741 -255 c76 -38 71 -33 58 -58 l-11 -21 -53 24 c-180 81 -187
86 -175 111 l10 23 54 -24 c30 -13 83 -38 117 -55z m6815 -19 c55 -34 94 -149
56 -164 -28 -11 -34 -7 -34 24 0 37 -23 85 -45 94 -49 18 -116 -9 -130 -54 -6
-18 11 -90 20 -90 2 0 16 5 30 12 19 8 24 16 19 31 -6 18 9 36 29 37 8 0 22
-33 33 -73 5 -20 -1 -25 -49 -40 -74 -23 -82 -22 -108 20 -30 48 -32 121 -3
160 44 60 123 79 182 43z m-6954 -34 c22 -9 37 -24 44 -45 11 -31 11 -31 67
-25 61 7 69 -2 35 -36 -14 -14 -33 -20 -64 -20 -60 0 -67 -22 -15 -45 40 -18
46 -29 30 -54 -8 -12 -30 -5 -125 40 -64 30 -115 59 -116 64 0 24 57 111 80
122 31 16 24 16 64 -1z"/>
<path d="M5235 8880 c-12 -13 -18 -36 -18 -65 0 -56 23 -85 69 -85 47 0 68 34
61 97 -3 29 -12 52 -23 60 -26 19 -68 16 -89 -7z"/>
<path d="M5847 8817 c-22 -55 -22 -57 13 -57 30 0 30 0 24 43 -9 59 -17 62
-37 14z"/>
<path d="M6080 8777 c-6 -40 -14 -79 -16 -89 -7 -25 50 -34 82 -13 68 44 54
143 -23 164 l-32 9 -11 -71z"/>
<path d="M6626 8640 c-14 -22 -26 -41 -26 -44 0 -2 14 -9 30 -15 l30 -10 0 55
c0 29 -2 54 -4 54 -2 0 -15 -18 -30 -40z"/>
<path d="M7481 8176 l-51 -75 22 -15 c37 -26 83 -20 112 15 36 42 35 87 -3
123 l-29 28 -51 -76z"/>
<path d="M7973 7800 c-58 -35 -70 -91 -29 -129 31 -29 66 -23 107 19 38 37 39
81 3 109 -33 26 -41 26 -81 1z"/>
<path d="M2781 7688 c7 -13 19 -33 27 -46 l15 -23 24 23 24 22 -43 23 c-55 28
-61 28 -47 1z"/>
<path d="M2580 7510 c-9 -17 -6 -24 17 -44 26 -22 29 -23 46 -9 32 30 15 73
-30 73 -12 0 -27 -9 -33 -20z"/>
<path d="M8406 7307 c-25 -20 -27 -26 -17 -45 21 -40 81 -23 81 23 0 19 -17
45 -29 45 -4 0 -19 -10 -35 -23z"/>
<path d="M1921 6254 c-6 -15 -10 -28 -9 -29 12 -10 50 -25 62 -25 9 0 18 11
22 25 13 53 -52 78 -75 29z"/>
<path d="M5275 8303 c-31 -8 -242 -151 -265 -180 -76 -97 -25 -233 82 -220
l38 5 -40 -46 c-21 -26 -44 -60 -49 -75 -23 -60 -7 -131 41 -183 10 -12 25
-44 33 -72 7 -28 22 -63 33 -77 19 -24 20 -29 7 -72 -18 -58 -50 -92 -150
-155 -44 -28 -120 -90 -170 -138 -163 -156 -188 -168 -245 -116 -32 29 -48 36
-81 36 -54 0 -75 -13 -99 -61 -12 -22 -36 -60 -54 -84 -74 -97 -51 -174 67
-227 28 -13 37 -22 33 -35 -2 -10 -7 -33 -11 -50 -8 -38 -22 -41 -115 -21 -78
16 -125 -7 -158 -74 -17 -37 -28 -48 -46 -48 -33 0 -92 -42 -88 -64 2 -10 -1
-15 -6 -12 -16 9 -21 -18 -12 -58 10 -45 22 -60 59 -76 23 -9 30 -19 34 -54 4
-23 11 -55 17 -71 l11 -29 24 25 c23 24 23 25 9 89 -7 36 -14 75 -14 88 0 21
-1 22 -24 7 -23 -15 -26 -15 -45 4 -26 26 -26 32 0 65 25 31 70 35 98 7 10
-10 33 -46 51 -79 40 -75 79 -98 139 -82 21 5 44 17 51 25 11 13 7 15 -23 15
-48 0 -81 32 -102 98 -14 43 -23 56 -46 64 -51 18 -50 77 2 98 23 10 39 10 68
1 21 -6 53 -11 71 -11 20 0 44 -10 62 -25 32 -27 58 -31 89 -15 28 16 23 35
-18 68 l-37 29 12 52 c16 70 5 91 -62 125 -88 45 -94 71 -30 147 19 23 41 57
49 76 20 47 53 45 104 -7 22 -22 44 -40 49 -40 50 0 176 83 239 157 23 28 95
86 163 133 135 92 161 120 193 200 20 51 27 58 87 88 63 32 64 33 25 28 -22
-3 -52 -8 -67 -12 -33 -8 -73 30 -84 79 -8 41 -30 84 -60 120 -26 31 -31 75
-13 110 6 12 45 56 86 98 72 73 74 77 50 83 -14 3 -44 22 -67 41 -41 34 -83
45 -95 25 -4 -6 4 -19 17 -30 22 -17 22 -19 4 -26 -24 -9 -49 6 -60 38 -16 44
18 95 98 146 39 25 91 58 115 73 80 52 135 40 286 -62 41 -28 95 -57 121 -65
41 -12 51 -12 102 6 62 22 113 25 143 10 10 -6 31 -34 45 -62 15 -29 36 -64
47 -80 l20 -27 -26 -38 c-48 -68 -105 -122 -147 -139 l-40 -16 40 -44 c36 -39
40 -49 40 -97 0 -29 -5 -58 -12 -65 -7 -7 -32 -12 -57 -12 l-46 -1 43 -37 c31
-27 44 -47 49 -74 3 -21 8 -38 12 -39 3 0 37 -1 74 -2 64 -2 71 -4 98 -34 16
-18 38 -33 49 -33 29 0 70 -47 70 -80 0 -16 -11 -37 -30 -55 -17 -16 -34 -43
-39 -59 -5 -17 -12 -39 -16 -48 -5 -12 2 -21 27 -33 18 -9 58 -44 89 -78 l56
-61 74 -4 c94 -4 124 -16 150 -59 32 -51 86 -73 186 -73 l82 0 -15 36 c-23 54
-12 74 42 74 25 0 55 7 68 15 56 37 75 -24 30 -100 -14 -25 -23 -49 -19 -55
10 -15 102 -12 136 5 24 13 40 14 86 5 74 -13 79 -13 97 6 24 24 19 41 -15 53
-24 8 -30 15 -27 33 2 18 15 27 60 41 55 17 62 24 129 113 40 52 81 99 91 105
11 6 43 15 71 20 29 6 64 12 78 15 16 4 30 0 38 -10 17 -20 31 -20 67 -1 26
13 30 13 48 -4 16 -16 17 -24 7 -52 -17 -49 -14 -56 28 -72 42 -17 51 -32 51
-83 0 -28 -11 -46 -55 -94 -30 -33 -55 -67 -55 -76 0 -8 -25 -41 -55 -73 -95
-100 -106 -160 -49 -266 26 -50 34 -74 29 -95 -8 -36 -19 -45 -73 -60 -34 -9
-46 -18 -60 -46 -10 -22 -29 -41 -49 -49 -55 -23 -38 -32 44 -23 75 8 100 16
76 25 -24 9 -13 24 31 43 53 22 96 80 96 127 0 18 -16 63 -36 100 -48 90 -43
118 30 192 30 31 62 75 71 99 10 23 31 52 47 64 80 57 89 201 16 252 -17 12
-22 26 -23 60 -1 50 -16 73 -62 92 -24 10 -39 11 -59 3 -20 -7 -36 -7 -56 2
-27 11 -43 10 -138 -9 -84 -16 -123 -47 -222 -182 -27 -36 -45 -49 -88 -63
-70 -24 -90 -42 -90 -84 0 -31 -2 -33 -36 -33 -19 0 -44 -5 -56 -11 -27 -14
-29 -9 -16 33 21 69 -36 138 -101 124 -14 -3 -50 -9 -79 -15 -29 -5 -62 -13
-73 -16 -22 -7 -49 -54 -49 -85 0 -16 -6 -20 -30 -20 -43 0 -85 24 -108 62
-32 52 -69 68 -153 68 l-73 0 -68 71 c-37 40 -68 74 -68 77 0 2 16 22 35 43
53 59 49 125 -13 192 -14 15 -30 27 -35 27 -5 0 -31 16 -58 36 -37 27 -62 37
-103 41 -71 7 -83 29 -49 92 25 47 24 75 -3 155 l-14 39 66 75 c103 118 112
159 49 234 -14 16 -25 36 -25 43 0 22 -52 77 -87 91 -45 19 -90 17 -159 -6
l-59 -20 -61 30 c-33 16 -82 46 -107 65 -87 66 -168 88 -252 68z"/>
<path d="M5242 8153 c-22 -39 48 -101 87 -76 32 20 19 47 -29 59 -25 6 -44 17
-42 23 3 16 -6 13 -16 -6z"/>
<path d="M5522 8096 c-26 -34 -28 -63 -6 -94 11 -16 24 -22 42 -20 35 4 41 38
14 75 -11 16 -21 37 -23 48 -4 18 -6 17 -27 -9z"/>
<path d="M5339 7956 c9 -11 8 -22 -8 -51 -16 -30 -17 -42 -9 -61 23 -50 80
-13 80 51 0 41 -25 75 -55 75 -16 0 -17 -3 -8 -14z"/>
<path d="M5710 7937 c0 -26 6 -40 22 -51 44 -31 97 -10 83 34 -5 14 -15 20
-37 20 -17 0 -40 7 -50 17 -17 15 -18 14 -18 -20z"/>
<path d="M5533 7809 c-43 -16 -57 -90 -21 -112 26 -17 48 9 48 54 0 22 5 39
10 39 14 0 12 17 -2 23 -7 2 -23 1 -35 -4z"/>
<path d="M5735 7713 c-16 -9 -44 -26 -60 -39 -41 -31 -70 -41 -177 -59 -51 -9
-112 -25 -135 -35 -49 -22 -93 -62 -93 -85 0 -15 2 -15 22 -1 29 21 75 20 96
0 15 -15 14 -18 -12 -40 -15 -13 -37 -24 -49 -24 -35 0 -84 -35 -89 -65 -4
-17 -1 -28 8 -32 8 -3 14 -18 14 -34 0 -25 -4 -29 -28 -29 -25 0 -29 -5 -39
-47 -5 -27 -13 -56 -18 -65 -6 -16 -1 -18 48 -18 31 0 58 -4 61 -9 7 -10 -19
-33 -61 -55 l-32 -16 44 -41 c25 -23 42 -46 39 -51 -6 -9 -50 -6 -100 8 -20 5
-20 4 -10 -45 17 -87 -28 -91 -71 -7 l-15 30 -15 -30 c-18 -35 -53 -74 -66
-74 -5 0 -7 27 -5 60 1 33 3 60 3 60 0 0 -22 -7 -49 -15 -90 -27 -95 -20 -35
49 35 39 38 46 21 46 -12 0 -55 -34 -103 -82 l-83 -81 48 -42 47 -42 -12 -49
c-6 -27 -15 -53 -19 -58 -5 -4 -25 4 -46 18 -35 24 -39 25 -46 9 -9 -23 -10
-93 -1 -93 3 0 25 11 47 24 23 13 67 32 99 41 l57 16 -36 45 -37 44 54 -25
c30 -13 79 -30 109 -36 30 -6 60 -19 67 -29 7 -10 22 -20 33 -23 16 -4 24 2
36 31 36 86 112 124 224 110 22 -3 25 1 30 37 8 57 13 62 72 68 99 10 123 17
208 60 67 34 86 48 89 67 3 20 5 22 10 8 5 -15 12 -12 51 21 l45 39 -17 63
c-9 35 -15 65 -13 67 2 2 27 -3 56 -12 29 -8 55 -14 57 -12 1 2 -9 29 -24 59
-23 47 -32 56 -61 62 -27 5 -33 10 -34 33 0 15 -3 21 -6 15 -9 -25 -20 -13
-26 28 -4 30 -14 48 -38 68 -48 40 -36 62 30 54 48 -5 50 -5 57 22 9 35 -10
93 -41 128 -28 31 -38 32 -80 10z m-121 -144 c-16 -18 -16 -19 4 -19 12 0 22
5 22 11 0 5 5 7 10 4 18 -11 10 -44 -15 -61 -33 -21 -59 -11 -53 20 3 16 1 23
-7 20 -6 -3 -18 2 -25 11 -17 20 3 45 36 45 12 0 26 6 31 13 5 9 9 7 11 -6 2
-10 -4 -27 -14 -38z m76 -76 c0 -40 -70 -73 -83 -39 -7 17 11 36 35 36 10 0
21 7 24 15 7 18 24 10 24 -12z m23 -74 c-12 -43 -83 -51 -83 -9 0 15 7 20 29
20 17 0 33 5 36 10 11 17 24 1 18 -21z m0 -86 c-27 -20 -68 -13 -68 12 0 15 8
21 30 23 17 2 35 8 40 13 7 7 11 3 13 -12 3 -14 -4 -28 -15 -36z m-256 -255
c-3 -7 -5 -2 -5 12 0 14 2 19 5 13 2 -7 2 -19 0 -25z m126 -13 c-3 -9 -8 -14
-10 -11 -3 3 -2 9 2 15 9 16 15 13 8 -4z m38 -22 c13 -16 12 -17 -3 -4 -10 7
-18 15 -18 17 0 8 8 3 21 -13z"/>
<path d="M5210 7676 c-12 -16 -12 -21 1 -44 21 -37 64 -60 86 -46 42 27 18 74
-38 74 -18 0 -29 6 -31 17 -3 15 -4 15 -18 -1z"/>
<path d="M5940 7350 c8 -5 29 -9 45 -9 29 1 29 1 5 9 -14 4 -34 8 -45 9 -16 1
-17 -1 -5 -9z"/>
<path d="M6072 7197 c-154 -189 -363 -336 -528 -369 -33 -6 -54 -16 -54 -24 0
-7 -9 -18 -21 -25 -14 -7 -18 -14 -11 -21 7 -7 17 -6 31 1 27 15 61 -2 61 -29
0 -17 3 -18 24 -9 13 6 27 20 29 30 7 25 28 24 34 -1 4 -13 11 -19 22 -16 9 3
23 1 31 -4 11 -7 20 -2 36 17 17 22 23 24 41 14 18 -9 23 -8 28 9 6 20 15 24
48 21 10 -2 21 8 27 24 7 20 16 26 33 23 16 -2 25 4 34 25 8 19 19 27 37 27
19 0 25 6 28 28 2 21 9 28 31 30 21 3 27 9 27 27 0 13 5 27 10 30 17 11 11 23
-15 29 -27 7 -34 31 -11 39 8 3 20 23 25 44 6 22 24 52 41 68 29 28 39 58 21
69 -4 3 -31 -23 -59 -57z"/>
<path d="M7525 7094 c-11 -8 -29 -14 -40 -13 -36 2 -40 -2 -15 -16 14 -8 52
-14 87 -15 53 0 64 -3 78 -22 15 -22 14 -24 -12 -35 -43 -20 -110 -7 -224 41
-11 5 -25 -7 -49 -41 -18 -26 -40 -54 -49 -61 -12 -10 -17 -40 -21 -132 -6
-114 -7 -121 -37 -157 -16 -21 -38 -40 -47 -41 -26 -5 -56 27 -56 60 0 16 -5
28 -13 28 -24 0 -37 -23 -37 -65 0 -31 7 -49 28 -72 24 -28 33 -31 80 -30 47
2 55 -1 82 -30 33 -35 39 -77 13 -87 -12 -5 -13 -10 -6 -17 16 -16 171 -7 208
11 29 15 30 17 27 77 -3 46 1 73 17 108 12 27 20 49 18 51 -1 2 -25 5 -52 7
-94 8 -205 42 -205 63 0 8 7 14 15 14 18 0 38 37 31 56 -10 25 -36 16 -37 -13
-1 -18 -5 -9 -12 25 -5 29 -7 55 -4 58 3 4 18 -3 33 -15 43 -34 159 -65 245
-66 l75 0 -10 -27 c-7 -20 -13 -24 -23 -17 -19 16 -33 1 -31 -32 1 -16 5 -29
8 -29 20 0 56 41 76 87 26 58 31 147 14 233 -6 30 -5 56 3 77 14 41 9 46 -32
30 -27 -10 -37 -9 -62 6 -37 20 -39 20 -64 1z"/>
<path d="M6103 6966 c-49 -62 -190 -177 -263 -215 l-77 -41 10 -40 c8 -28 20
-44 41 -55 22 -12 24 -15 9 -12 -17 4 -24 -2 -32 -26 -23 -65 -6 -105 43 -100
l31 2 -32 -8 c-18 -5 -39 -13 -46 -19 -10 -9 -17 -8 -25 0 -8 8 -12 8 -12 1 0
-6 -16 -28 -36 -49 l-35 -39 43 -9 c52 -10 191 5 299 33 177 47 379 158 517
284 23 22 42 44 42 48 0 5 -18 16 -40 25 -23 10 -57 36 -81 65 -36 44 -45 49
-77 46 -21 -1 -40 -6 -44 -12 -5 -6 -12 -4 -18 5 -6 10 -10 11 -10 3 0 -8 -12
-12 -27 -12 -24 2 -25 2 -5 6 34 7 26 20 -15 26 -30 5 -49 19 -89 63 l-50 57
-21 -27z m137 -130 c0 -2 -8 -10 -17 -17 -16 -13 -17 -12 -4 4 13 16 21 21 21
13z m136 -24 c-10 -2 -22 0 -28 6 -6 6 0 7 19 4 21 -5 23 -7 9 -10z m27 -14
c-2 -5 -17 -8 -33 -8 -22 0 -30 -5 -33 -22 -3 -18 -5 -17 -6 7 -1 28 1 30 38
30 22 0 37 -3 34 -7z m-193 -18 c0 -16 -6 -20 -32 -19 -31 2 -31 2 -5 6 15 2
27 11 27 19 0 8 2 14 5 14 3 0 5 -9 5 -20z m-70 -24 c0 -2 -8 -10 -17 -17 -16
-13 -17 -12 -4 4 13 16 21 21 21 13z m29 -9 c-2 -1 -13 -9 -24 -17 -19 -14
-19 -14 -6 3 7 9 18 17 24 17 6 0 8 -1 6 -3z m-69 -51 c0 -2 -15 -6 -34 -8
-19 -2 -32 0 -30 4 5 8 64 12 64 4z m140 -24 c0 -5 -7 -9 -15 -9 -8 0 -12 4
-9 9 3 4 9 8 15 8 5 0 9 -4 9 -8z m-233 -31 c0 -11 -5 -18 -9 -15 -4 3 -5 11
-1 19 7 21 12 19 10 -4z m131 -17 c-3 -14 -5 -12 -10 9 -3 19 -2 25 4 19 6 -6
8 -18 6 -28z m55 29 c-7 -2 -19 -2 -25 0 -7 3 -2 5 12 5 14 0 19 -2 13 -5z
m-220 -10 c-7 -2 -19 -2 -25 0 -7 3 -2 5 12 5 14 0 19 -2 13 -5z m-65 -23 c-7
-10 -14 -17 -17 -15 -4 4 18 35 25 35 2 0 -1 -9 -8 -20z m175 -57 c-7 -2 -21
-2 -30 0 -10 3 -4 5 12 5 17 0 24 -2 18 -5z m-78 -33 c-10 -11 -22 -20 -26
-20 -5 0 2 10 14 23 27 28 38 25 12 -3z"/>
<path d="M6835 6860 c-3 -5 -27 -10 -52 -10 -50 0 -49 4 -27 -82 6 -26 4 -28
-27 -28 -19 0 -51 -3 -71 -6 l-38 -7 30 -34 c17 -18 30 -38 30 -44 0 -5 11 -2
25 7 18 12 39 15 76 12 l50 -5 -7 42 c-5 35 -1 51 20 87 14 25 26 52 26 61 0
18 -25 23 -35 7z"/>
<path d="M7020 6723 c-25 -10 -30 -25 -30 -89 0 -72 13 -92 64 -104 36 -8 38
-7 31 13 -3 12 -9 56 -12 97 -6 83 -15 97 -53 83z"/>
<path d="M5501 6679 c8 -5 27 -9 43 -9 24 0 28 -3 24 -24 -4 -19 5 -32 49 -66
29 -24 53 -46 53 -50 0 -12 -21 -17 -94 -25 -43 -5 -70 -13 -73 -21 -7 -19
-47 -18 -63 1 -22 26 -30 16 -12 -15 17 -30 131 -90 171 -90 27 0 92 92 108
153 7 30 10 71 7 102 l-6 52 -111 1 c-67 0 -104 -4 -96 -9z"/>
<path d="M4616 6614 c6 -52 5 -56 -12 -51 -62 19 -74 19 -74 3 0 -16 27 -76
34 -76 13 0 136 134 130 140 -5 5 -26 16 -47 25 l-39 16 8 -57z"/>
<path d="M6876 6653 c-4 -4 -42 -8 -84 -8 -76 0 -77 0 -80 -27 -2 -20 9 -40
47 -82 28 -31 51 -64 51 -74 0 -20 -31 -52 -67 -71 -37 -19 -29 -54 18 -92 64
-50 101 -107 93 -141 -4 -19 0 -37 10 -53 21 -32 20 -58 -3 -86 -17 -21 -22
-22 -40 -11 -29 17 -29 16 -33 -25 -3 -35 -8 -41 -60 -68 -113 -61 -144 -106
-189 -282 -16 -63 -36 -127 -44 -143 -11 -22 -12 -35 -4 -59 6 -17 15 -31 21
-31 16 0 58 108 92 238 19 68 42 136 53 150 11 15 44 41 74 58 30 18 72 47 93
65 21 19 51 42 66 51 32 19 55 76 47 116 -32 157 -38 172 -98 237 l-39 42 25
13 c50 27 59 119 16 179 l-21 30 22 3 c18 2 30 -8 56 -44 38 -57 85 -83 175
-98 l66 -12 -31 -39 c-27 -34 -33 -50 -36 -105 -3 -38 1 -76 8 -94 12 -29 56
-73 95 -95 15 -9 10 -15 -42 -42 -60 -33 -101 -68 -90 -79 3 -3 21 6 39 20 19
14 68 41 108 59 60 28 78 41 89 67 11 27 12 39 1 68 -11 31 -10 37 9 63 23 32
26 39 11 39 -5 0 -10 -7 -10 -15 0 -8 -11 -22 -25 -31 -19 -12 -23 -22 -19
-44 8 -39 -20 -54 -63 -34 -35 18 -53 51 -53 100 0 74 31 109 128 144 38 15
41 32 7 66 -22 22 -31 24 -112 22 -115 -2 -169 20 -207 85 -30 51 -59 80 -70
70z"/>
<path d="M4984 6529 c-3 -6 -20 -9 -37 -6 -25 3 -36 -1 -51 -20 -14 -19 -25
-24 -45 -20 -21 4 -29 1 -36 -16 -6 -13 -21 -23 -35 -25 -17 -2 -30 -14 -40
-35 -9 -19 -24 -33 -36 -35 -16 -2 -20 -8 -17 -22 3 -11 -4 -28 -19 -42 -12
-13 -22 -32 -20 -41 2 -10 -1 -24 -8 -32 -6 -7 -8 -25 -4 -39 7 -29 -13 -89
-27 -80 -5 3 -9 0 -9 -5 0 -6 21 -11 50 -11 35 0 50 4 50 13 0 21 37 50 55 44
8 -4 15 -18 15 -32 0 -24 3 -25 54 -25 55 0 83 15 49 26 -134 43 -148 87 -27
82 l62 -3 -24 45 c-53 103 -40 125 38 65 l46 -34 6 48 c3 26 13 56 20 67 14
18 16 16 35 -26 11 -25 21 -55 21 -67 0 -25 15 -39 25 -23 11 18 87 70 102 70
20 0 16 -21 -15 -84 l-29 -56 61 0 c71 0 96 -11 78 -33 -11 -13 -60 -37 -105
-51 -46 -15 3 -26 109 -26 108 0 117 2 134 23 17 20 17 24 3 39 -11 12 -13 27
-9 51 5 25 2 38 -9 47 -8 7 -15 25 -15 41 0 18 -7 32 -20 39 -11 6 -20 21 -20
34 0 17 -7 26 -25 30 -14 4 -31 18 -37 31 -8 18 -19 25 -38 25 -18 0 -33 8
-43 24 -12 18 -22 22 -43 18 -19 -3 -31 1 -40 13 -12 16 -17 17 -40 6 -22 -9
-31 -9 -50 4 -28 18 -31 18 -40 4z"/>
<path d="M4419 6393 c15 -28 79 -93 90 -93 18 0 21 17 6 30 -9 7 -13 21 -9 34
4 18 -1 24 -29 34 -50 18 -70 16 -58 -5z"/>
<path d="M6405 6381 c-9 -28 1 -41 31 -41 22 0 25 4 22 28 -4 34 -43 44 -53
13z"/>
<path d="M5545 6329 c-38 -22 -71 -42 -73 -44 -3 -3 102 -66 130 -77 16 -7 18
0 18 77 0 47 -1 85 -3 85 -1 0 -34 -18 -72 -41z"/>
<path d="M7187 6344 c-37 -37 -34 -75 7 -85 36 -10 64 4 76 37 5 13 17 24 25
24 9 0 14 4 11 9 -3 5 -15 7 -26 4 -11 -3 -20 0 -20 6 0 6 -9 11 -19 11 -11 0
-21 5 -23 11 -2 6 -16 -2 -31 -17z"/>
<path d="M7520 6349 c0 -5 -8 -9 -17 -8 -10 1 -26 -2 -37 -6 -12 -5 -21 -3
-27 6 -7 11 -9 11 -9 -3 0 -11 -8 -18 -19 -18 -11 0 -26 -3 -34 -6 -10 -3 -18
2 -22 16 -9 30 -18 17 -20 -28 -1 -20 -3 -44 -6 -52 -7 -26 110 -26 158 0 21
11 45 20 55 20 23 0 41 36 34 66 -5 17 -13 24 -31 24 -14 0 -25 -5 -25 -11z"/>
<path d="M4403 6303 c-40 -5 -40 -9 -6 -45 33 -34 59 -36 67 -4 3 13 9 31 12
40 6 17 -2 18 -73 9z"/>
<path d="M6129 6294 c-15 -18 -2 -47 24 -52 25 -5 40 33 21 52 -19 20 -28 20
-45 0z"/>
<path d="M4977 6182 c-10 -10 -17 -33 -17 -50 l0 -32 60 0 c55 0 60 2 66 25
10 39 -19 75 -60 75 -19 0 -40 -8 -49 -18z"/>
<path d="M6318 6148 c-6 -55 -3 -59 29 -47 23 8 36 3 104 -42 75 -49 126 -96
160 -148 13 -21 18 -22 38 -12 21 12 21 14 7 35 -8 13 -16 38 -18 57 -2 28 -8
36 -35 44 -18 6 -42 20 -55 31 -41 36 -77 54 -108 54 -22 0 -39 9 -61 35 -41
47 -56 45 -61 -7z"/>
<path d="M5445 6130 c-5 -30 -3 -44 10 -56 28 -28 35 -61 35 -162 l0 -97 25
30 c13 17 24 40 25 53 0 12 5 22 11 22 15 0 2 142 -16 187 -11 26 -57 63 -79
63 -2 0 -7 -18 -11 -40z"/>
<path d="M5890 6149 c-14 -26 3 -49 36 -49 18 0 24 5 24 23 0 45 -41 63 -60
26z"/>
<path d="M4223 6133 c-7 -2 -13 -11 -13 -19 0 -11 19 -14 93 -14 l92 0 -30 20
c-29 19 -110 27 -142 13z"/>
<path d="M4720 6120 c-9 -17 -8 -20 10 -20 11 0 20 6 20 14 0 24 -18 28 -30 6z"/>
<path d="M3350 6116 c0 -11 38 -15 188 -19 170 -5 256 -16 327 -43 17 -7 18
-6 7 8 -7 9 -33 21 -58 27 -149 38 -464 56 -464 27z"/>
<path d="M7297 6113 c-13 -13 -7 -21 13 -16 11 3 17 9 14 14 -6 11 -18 12 -27
2z"/>
<path d="M4478 6103 c23 -2 59 -2 80 0 20 2 1 4 -43 4 -44 0 -61 -2 -37 -4z"/>
<path d="M6250 6048 c0 -7 25 -74 56 -148 30 -74 78 -192 105 -262 28 -70 54
-130 59 -133 4 -3 11 7 14 21 7 25 -39 157 -73 214 l-15 25 22 -19 c24 -21 72
-115 72 -140 0 -9 4 -16 8 -16 7 0 42 114 42 135 0 4 -16 4 -35 1 -38 -8 -49
10 -20 34 22 18 18 39 -10 52 -18 8 -28 8 -38 0 -24 -20 -28 0 -6 24 18 19 20
26 9 39 -16 19 -39 19 -60 0 -16 -14 -18 -14 -23 -1 -4 9 -2 18 3 21 16 10 11
33 -8 40 -11 3 -30 31 -45 65 -16 37 -32 60 -41 60 -9 0 -16 -6 -16 -12z"/>
<path d="M7375 6015 c-138 -30 -237 -87 -334 -190 -104 -111 -160 -249 -182
-445 -58 -516 244 -884 706 -857 171 10 310 70 406 175 49 54 134 211 145 267
l6 31 -129 38 c-70 22 -133 41 -139 43 -7 3 -21 -23 -34 -62 -43 -129 -127
-213 -237 -235 -143 -30 -286 32 -359 155 -83 142 -91 505 -13 656 32 63 95
126 158 156 49 24 68 28 146 28 73 0 100 -5 143 -24 63 -29 137 -106 154 -163
6 -22 17 -42 23 -44 10 -4 274 53 283 61 8 7 -52 142 -84 190 -70 107 -200
190 -341 220 -84 18 -237 18 -318 0z"/>
<path d="M2860 5270 l0 -731 148 3 147 3 3 307 2 308 78 -6 c125 -9 158 -21
216 -80 28 -28 123 -160 211 -293 l160 -240 173 -1 c94 0 172 2 172 5 0 6
-186 305 -243 390 -64 95 -125 163 -188 207 -32 23 -57 43 -55 45 1 2 29 10
61 18 80 21 168 70 211 118 102 112 128 305 60 452 -47 102 -111 161 -216 197
-62 21 -82 22 -502 26 l-438 3 0 -731z m806 461 c104 -59 116 -224 21 -302
-37 -30 -109 -39 -322 -39 l-205 0 0 186 0 186 233 -4 c223 -3 234 -4 273 -27z"/>
<path d="M3250 5568 l0 -91 176 6 c197 7 219 14 229 70 8 43 -9 85 -40 97 -15
6 -103 10 -196 10 l-169 0 0 -92z m334 46 c30 -31 31 -33 11 -61 -21 -30 -74
-43 -180 -43 -87 0 -91 1 -122 31 -18 16 -33 32 -33 34 0 2 13 18 30 35 l29
30 119 0 c116 0 120 -1 146 -26z"/>
<path d="M4230 5880 l0 -120 215 0 215 0 2 -607 3 -608 145 0 145 0 3 608 2
607 215 0 215 0 0 120 0 120 -580 0 -580 0 0 -120z"/>
<path d="M5683 5993 c-26 -10 -7 -63 22 -63 14 0 37 48 30 61 -7 10 -32 11
-52 2z"/>
<path d="M5846 5992 c-10 -17 -549 -1408 -554 -1430 l-4 -23 152 3 153 3 61
165 61 165 294 0 294 0 63 -165 62 -165 156 -3 c121 -2 156 0 156 10 0 7 -130
335 -288 728 l-288 715 -156 3 c-86 1 -159 -1 -162 -6z m258 -592 c53 -140 96
-261 96 -268 0 -9 -47 -12 -195 -12 -109 0 -195 4 -195 9 0 5 41 121 90 257
50 137 93 255 95 263 3 8 7 12 9 10 2 -2 47 -119 100 -259z"/>
<path d="M6001 5390 c-1 -3 -14 -42 -30 -88 l-29 -82 63 0 63 0 -25 68 c-33
87 -41 108 -42 102z"/>
<path d="M4111 5813 c0 -5 4 -17 9 -28 8 -18 9 -17 9 8 1 15 -3 27 -9 27 -5 0
-10 -3 -9 -7z"/>
<path d="M5647 5800 c3 -11 9 -17 14 -14 14 8 10 34 -5 34 -9 0 -12 -7 -9 -20z"/>
<path d="M5575 5800 c-3 -5 -15 -10 -25 -10 -10 0 -23 -6 -27 -12 -4 -7 -14
-13 -22 -13 -7 0 -18 -16 -25 -35 -19 -61 -53 -70 -253 -70 l-172 0 -1 -280
c0 -242 2 -281 15 -286 19 -8 19 -28 0 -44 -13 -10 -15 -51 -15 -249 l0 -236
33 -54 c18 -30 37 -56 42 -57 12 -4 63 100 104 211 16 44 32 88 36 97 5 13 2
15 -15 11 -26 -7 -44 15 -28 34 14 18 35 16 46 -3 8 -14 12 -10 22 22 7 21 30
82 51 134 45 108 46 113 20 105 -10 -3 -26 -3 -35 1 -42 16 7 84 61 84 28 0
33 5 46 43 13 35 189 490 203 523 3 6 -6 14 -19 18 -28 7 -42 42 -21 50 8 3
14 10 14 16 0 13 -27 13 -35 0z m-405 -220 c-8 -5 -26 -9 -40 -9 -23 1 -23 2
5 9 43 11 52 11 35 0z m188 -332 c30 -30 -6 -78 -58 -78 -41 0 -53 13 -39 42
18 41 73 60 97 36z m-79 -183 c18 -31 27 -54 22 -50 -6 3 -11 2 -11 -4 0 -21
-42 -121 -50 -121 -19 0 -150 226 -150 258 0 6 25 26 57 46 l56 35 22 -53 c12
-30 36 -80 54 -111z m-151 -83 c3 -18 -1 -22 -22 -22 -19 0 -26 5 -26 18 0 39
43 43 48 4z m68 -87 c6 -16 -12 -45 -27 -45 -12 0 -31 39 -24 50 10 15 45 12
51 -5z"/>
<path d="M7426 5665 c-21 -7 -54 -28 -73 -47 -32 -30 -74 -97 -73 -115 1 -4
10 10 22 32 41 78 116 124 203 125 63 0 132 -33 161 -77 12 -18 36 -50 53 -70
l30 -38 -18 52 c-26 72 -54 108 -104 132 -51 25 -141 27 -201 6z"/>
<path d="M1911 5643 c-1 -7 -12 -37 -25 -67 l-25 -55 -58 24 c-32 13 -60 22
-62 19 -2 -2 7 -28 19 -59 22 -53 24 -56 52 -50 28 7 28 6 16 -22 -18 -43 -25
-47 -32 -18 -7 29 -13 29 -96 -7 l-45 -20 55 -23 c69 -30 74 -30 87 -2 11 21
11 21 26 -13 10 -24 28 -42 54 -54 37 -18 37 -19 16 -29 -28 -12 -28 -18 2
-87 22 -53 24 -54 33 -30 5 14 17 43 26 64 17 41 11 55 -23 56 -19 0 -5 13 32
28 28 12 29 12 22 -16 -6 -27 -3 -30 46 -50 28 -12 56 -22 60 -22 9 0 -26 99
-41 113 -4 5 -17 4 -29 -2 -24 -13 -27 -4 -9 34 l12 26 17 -22 16 -22 57 23
c31 13 56 26 56 30 0 3 -23 15 -52 26 -29 10 -56 20 -60 22 -4 2 -13 -9 -19
-25 l-11 -28 -14 34 c-18 43 -18 42 11 35 22 -5 27 -1 50 52 14 31 24 59 22
60 -2 2 -29 -6 -61 -19 -53 -21 -57 -24 -52 -49 6 -33 8 -32 -35 -14 l-34 14
28 11 c15 6 27 14 27 18 -1 16 -58 128 -59 116z m-16 -136 c17 -13 16 -15 -15
-26 -39 -13 -40 -13 -29 17 10 26 18 27 44 9z"/>
<path d="M8941 5593 c-13 -32 -27 -61 -30 -65 -3 -3 -32 5 -65 18 -32 14 -60
24 -61 22 -2 -2 7 -28 20 -58 21 -48 27 -55 50 -53 22 2 25 -1 19 -20 -9 -29
-23 -55 -24 -41 0 5 -6 18 -13 28 -12 16 -16 15 -72 -10 l-60 -27 44 -18 c74
-32 88 -33 94 -7 8 27 22 16 33 -26 6 -27 6 -28 -16 -16 -26 14 -31 9 -55 -50
-9 -25 -19 -50 -22 -57 -3 -7 22 -1 57 14 58 25 61 29 56 54 -5 27 -4 27 24
17 33 -11 49 -28 28 -28 -37 -1 -39 -16 -10 -81 l29 -64 24 63 c13 34 29 62
36 62 7 0 37 -11 68 -24 30 -14 55 -23 55 -22 0 5 -51 120 -55 124 -8 8 -54
-24 -64 -44 -11 -25 -27 -30 -51 -14 -12 7 -7 12 23 25 27 11 43 26 53 51 14
34 34 38 34 7 0 -18 23 -14 91 16 l44 18 -59 27 c-32 14 -62 26 -66 26 -4 0
-11 -12 -15 -27 l-7 -28 -13 25 c-21 37 -18 49 11 47 22 -2 28 5 49 56 13 31
22 57 19 57 -2 0 -32 -11 -65 -25 l-60 -24 -20 47 c-10 26 -23 55 -27 65 -6
15 -12 7 -31 -40z m1 -84 c20 -11 20 -12 -12 -25 -39 -17 -46 -13 -30 15 12
24 14 25 42 10z m88 -10 c15 -28 9 -31 -30 -18 -31 11 -32 13 -15 26 25 18 32
17 45 -8z"/>
<path d="M7262 5415 c0 -16 2 -22 5 -12 2 9 2 23 0 30 -3 6 -5 -1 -5 -18z"/>
<path d="M7253 5280 c0 -41 2 -58 4 -37 2 20 2 54 0 75 -2 20 -4 3 -4 -38z"/>
<path d="M1761 5275 c-13 -31 -21 -58 -18 -61 2 -3 30 5 61 18 47 19 55 26 50
43 -8 26 -24 41 -50 49 -17 5 -24 -2 -43 -49z"/>
<path d="M7262 5150 c0 -19 2 -27 5 -17 2 9 2 25 0 35 -3 9 -5 1 -5 -18z"/>
<path d="M7271 5098 c-2 -34 40 -125 72 -158 54 -55 157 -92 157 -55 0 8 -8
15 -17 15 -41 0 -95 23 -127 53 -37 35 -53 62 -72 122 -7 22 -13 32 -13 23z"/>
<path d="M1465 4978 c-30 -330 240 -1084 606 -1693 177 -295 455 -634 677
-824 671 -575 1427 -917 2252 -1018 182 -22 663 -25 845 -5 754 84 1469 368
2064 822 445 339 876 864 1120 1365 126 256 281 676 345 930 45 182 76 414 62
470 l-7 27 -357 -5 c-300 -3 -367 -7 -417 -21 -132 -38 -234 -116 -315 -239
-22 -34 -88 -174 -146 -312 -122 -287 -203 -458 -267 -565 l-44 -75 50 -13
c113 -29 157 -79 157 -179 0 -61 -1 -63 -22 -58 -13 3 -92 16 -176 30 l-153
26 -27 -33 c-15 -18 -47 -55 -71 -83 l-45 -50 65 -7 c264 -30 428 -66 544
-122 l72 -34 7 -87 c3 -49 5 -89 4 -91 -2 -1 -102 15 -223 37 -284 51 -512 87
-600 95 l-70 6 -58 -51 c-329 -289 -771 -518 -1202 -621 -233 -57 -384 -74
-655 -74 -263 0 -387 13 -615 60 -451 96 -903 310 -1258 597 l-107 88 -128
-16 c-173 -21 -218 -28 -510 -81 -139 -25 -255 -44 -257 -42 -11 10 17 153 35
177 40 57 201 101 490 136 80 9 151 19 158 21 8 2 -16 37 -59 89 l-72 85 -41
-6 c-23 -4 -101 -17 -175 -30 -74 -13 -136 -23 -137 -21 -1 1 1 39 4 85 l5 83
46 23 c25 13 72 32 103 42 l57 17 -35 61 c-59 102 -188 371 -264 551 -112 265
-153 338 -240 425 -83 84 -144 118 -268 152 -69 19 -110 22 -409 26 l-331 4
-7 -74z m6459 -2009 c55 -104 56 -106 36 -124 -18 -17 -21 -16 -82 22 -35 22
-69 43 -76 47 -7 4 5 -28 27 -72 39 -78 40 -80 21 -97 -11 -10 -26 -15 -33
-12 -11 4 -172 114 -196 134 -3 2 4 12 15 23 19 18 20 18 87 -31 l67 -49 -37
75 -37 75 21 22 22 22 71 -48 72 -47 -28 48 c-15 26 -33 59 -41 71 -13 21 -13
26 3 43 10 11 21 16 25 12 4 -5 32 -56 63 -114z m-4834 76 c10 -13 1 -27 -56
-91 l-68 -76 48 -42 c43 -37 46 -43 33 -55 -19 -15 -28 -11 -97 51 l-52 48 79
90 c43 49 83 89 89 90 6 0 17 -7 24 -15z m201 -172 c64 -51 69 -58 54 -72 -17
-17 -16 -17 -79 33 -35 28 -38 28 -54 12 -16 -16 -14 -19 32 -59 43 -38 47
-44 32 -56 -14 -12 -22 -9 -63 23 -44 34 -47 35 -65 19 -18 -16 -25 -43 -10
-43 4 -1 26 -18 50 -38 37 -33 41 -40 29 -56 -12 -16 -18 -13 -82 40 -39 31
-69 63 -69 70 2 15 136 182 147 183 4 1 40 -24 78 -56z m4379 -69 c64 -54 79
-130 35 -182 -55 -66 -130 -67 -188 -3 -43 48 -53 87 -33 135 30 73 127 99
186 50z m-4205 -64 c16 -18 16 -24 -11 -135 -34 -140 -37 -145 -62 -121 -16
14 -18 23 -12 46 7 26 4 31 -32 55 -37 25 -41 25 -64 10 -20 -13 -27 -13 -44
-3 -11 7 -19 16 -17 21 2 7 207 145 218 146 3 1 14 -8 24 -19z m3975 -75 c19
-20 22 -31 16 -65 -5 -32 -3 -40 9 -40 23 0 95 -31 95 -41 0 -5 -11 -14 -24
-20 -19 -9 -35 -7 -79 9 -44 17 -58 18 -71 9 -15 -11 -14 -15 9 -49 30 -44 30
-50 6 -65 -16 -10 -26 0 -90 93 l-71 104 67 45 c77 51 100 55 133 20z m-3817
-32 c65 -42 97 -74 97 -100 0 -33 -45 -76 -73 -71 -22 4 -23 2 -19 -59 3 -35
0 -63 -5 -63 -26 0 -43 29 -49 85 -6 56 -17 85 -33 85 -4 0 -17 -18 -30 -40
-23 -41 -41 -49 -59 -27 -8 10 4 38 51 115 34 56 65 102 70 102 4 0 26 -12 50
-27z m3621 -92 c19 -21 23 -51 12 -86 -5 -17 3 -24 51 -45 l56 -26 -26 -17
c-25 -16 -28 -16 -81 9 -35 16 -64 23 -76 19 -21 -7 -20 -7 6 -52 26 -44 26
-47 8 -60 -10 -7 -20 -13 -23 -13 -3 0 -22 28 -42 63 -20 34 -48 82 -62 107
l-27 46 63 36 c70 42 115 48 141 19z m-3454 -11 c10 -6 18 -39 25 -102 l11
-93 33 65 c41 79 35 74 60 60 20 -10 20 -13 -34 -120 -30 -61 -59 -110 -63
-110 -30 0 -42 29 -50 115 l-8 90 -34 -67 c-34 -68 -46 -78 -67 -57 -9 9 2 39
43 120 30 60 58 109 62 109 4 0 14 -5 22 -10z m3237 -110 c84 -51 90 -172 11
-220 -71 -43 -161 -7 -188 76 -37 110 79 204 177 144z m-2880 -65 c74 -34 81
-39 72 -57 -7 -13 -16 -17 -27 -12 -44 18 -53 11 -92 -76 -21 -46 -43 -86 -47
-87 -5 -2 -16 2 -26 9 -15 12 -13 20 24 102 43 96 44 91 -6 121 -18 11 -10 49
9 42 6 -3 48 -22 93 -42z m2689 -109 c35 -85 42 -111 32 -117 -26 -17 -35 -8
-63 61 -16 39 -29 69 -31 67 -1 -1 2 -38 8 -81 9 -65 9 -79 -3 -87 -26 -16
-35 -9 -89 64 -29 39 -50 65 -47 57 3 -8 17 -44 32 -79 25 -62 26 -66 9 -78
-10 -7 -21 -10 -25 -6 -10 12 -89 204 -89 218 0 11 41 35 60 35 4 0 30 -29 56
-65 26 -36 48 -65 49 -65 1 0 -2 24 -6 53 -13 93 -11 113 14 125 12 6 28 10
35 9 8 -1 34 -51 58 -111z m-2482 29 c37 -18 66 -62 66 -101 0 -42 -38 -113
-71 -129 -81 -42 -179 15 -179 105 0 106 92 169 184 125z m2183 -50 c60 -39
75 -151 27 -199 -40 -40 -96 -51 -142 -29 -65 32 -95 126 -62 189 30 56 120
76 177 39z m-2003 -10 c70 -21 94 -39 105 -80 13 -48 -10 -127 -46 -154 -31
-25 -67 -26 -139 -5 -43 12 -54 19 -50 32 18 63 58 199 61 210 5 15 9 15 69
-3z m1786 -30 c0 -8 0 -18 0 -22 0 -5 -13 -12 -30 -16 -16 -4 -30 -11 -30 -15
0 -4 11 -48 24 -99 20 -78 21 -93 9 -97 -34 -13 -40 -4 -63 93 l-23 99 -31 -9
c-43 -13 -46 -12 -46 14 0 21 9 25 83 44 102 26 107 26 107 8z m-1482 -169
c13 -70 21 -130 18 -134 -3 -3 -17 0 -31 6 -17 8 -25 20 -25 36 0 21 -7 26
-47 35 -45 9 -49 9 -66 -14 -19 -25 -51 -33 -62 -16 -3 6 14 41 38 78 24 37
55 87 70 110 23 37 29 41 54 34 26 -7 28 -12 51 -135z m105 64 c11 -27 24 -50
28 -50 3 0 19 18 34 40 27 40 47 48 74 31 10 -7 6 -17 -21 -47 -62 -70 -78
-96 -78 -125 0 -43 -10 -59 -37 -59 -24 0 -25 1 -19 58 6 50 3 64 -24 120 -37
77 -37 82 -4 82 21 0 29 -8 47 -50z m1055 24 c33 -23 52 -67 52 -123 0 -73
-26 -99 -112 -113 -37 -7 -70 -9 -73 -6 -3 3 -14 58 -24 123 -19 125 -20 121
34 128 66 9 102 6 123 -9z m-763 -119 l-7 -105 61 0 c59 0 61 -1 61 -26 0 -27
0 -27 -61 -20 -34 3 -75 6 -90 6 l-28 0 5 83 c10 157 12 167 41 167 l25 0 -7
-105z m325 80 c0 -24 -2 -25 -65 -25 -62 0 -65 -1 -65 -25 0 -23 4 -24 63 -27
54 -3 62 -5 62 -23 0 -18 -8 -20 -62 -23 -62 -3 -63 -3 -63 -32 l0 -30 70 0
c68 0 70 -1 70 -25 0 -25 0 -25 -95 -25 l-95 0 0 125 0 124 73 4 c39 1 80 4
90 5 12 1 17 -5 17 -23z m220 -95 l60 -120 -30 0 c-23 0 -33 6 -42 25 -9 21
-18 25 -53 25 -44 0 -65 -13 -65 -42 0 -17 -45 -37 -57 -25 -3 3 12 62 32 131
37 123 39 126 66 126 27 0 33 -9 89 -120z"/>
<path d="M7547 2762 c-34 -37 -10 -110 42 -132 26 -11 35 -10 56 4 45 30 45
71 1 119 -30 32 -75 36 -99 9z"/>
<path d="M3380 2660 c-24 -18 -24 -20 -8 -37 20 -20 32 -11 42 30 8 32 0 34
-34 7z"/>
<path d="M7346 2616 l-37 -22 20 -25 19 -24 29 21 c31 23 42 59 20 67 -8 3
-31 -5 -51 -17z"/>
<path d="M3576 2575 c-9 -14 -16 -26 -16 -27 0 -11 72 -40 84 -35 28 11 18 44
-18 65 l-35 21 -15 -24z"/>
<path d="M7145 2493 c-16 -8 -31 -17 -33 -18 -2 -2 4 -15 13 -28 l16 -26 35
21 c25 15 34 27 32 42 -4 27 -25 30 -63 9z"/>
<path d="M6917 2372 c-21 -23 -22 -64 -2 -101 38 -74 135 -45 122 35 -12 71
-81 109 -120 66z"/>
<path d="M4263 2232 c-21 -13 -44 -80 -37 -107 13 -50 80 -61 113 -19 28 36
29 109 2 124 -23 12 -61 13 -78 2z"/>
<path d="M6420 2180 c-34 -34 -21 -105 25 -136 21 -14 30 -14 55 -4 34 14 44
38 36 84 -13 68 -75 97 -116 56z"/>
<path d="M4505 2159 c-2 -8 -13 -42 -24 -76 l-19 -63 36 -9 c22 -7 41 -7 52
-1 34 18 53 117 27 138 -22 19 -66 25 -72 11z"/>
<path d="M4747 2048 c-20 -35 -20 -34 14 -43 24 -6 25 -4 21 29 -6 48 -14 51
-35 14z"/>
<path d="M5886 2043 c3 -16 8 -50 12 -78 8 -49 8 -50 42 -48 57 3 75 48 46
118 -14 33 -18 35 -60 35 -44 0 -45 -1 -40 -27z"/>
<path d="M5682 1980 c-9 -38 -9 -40 13 -40 13 0 27 4 30 10 5 8 -20 70 -29 70
-2 0 -8 -18 -14 -40z"/>
<path d="M3331 5033 c7 -10 27 -32 43 -49 42 -41 50 -53 131 -174 38 -58 72
-107 75 -110 3 -3 26 -36 50 -75 24 -38 59 -86 78 -105 l34 -35 -28 45 c-72
119 -294 440 -330 477 -41 43 -81 62 -53 26z"/>
<path d="M5775 4768 c-34 -98 -34 -98 -14 -109 19 -10 24 -3 20 29 -1 6 3 12
9 12 5 0 10 18 10 40 0 38 -15 55 -25 28z"/>
<path d="M5818 4668 c-6 -141 -27 -199 -103 -288 -62 -72 -93 -127 -120 -210
-27 -84 -50 -124 -92 -159 -95 -80 -101 -90 -53 -83 17 2 37 -1 45 -8 39 -33
-6 -110 -65 -110 -70 0 -106 40 -145 160 -10 30 -33 74 -51 98 -24 31 -38 66
-49 120 -29 135 -45 180 -88 252 -23 38 -44 70 -47 70 -3 0 -13 -11 -22 -24
-16 -22 -16 -25 16 -72 41 -62 63 -121 76 -208 13 -81 29 -123 75 -191 18 -27
41 -73 50 -102 32 -101 95 -163 166 -163 109 0 180 82 149 174 -10 32 -9 38
24 85 19 28 44 81 57 118 31 96 51 131 112 204 95 112 116 167 125 332 l7 117
-31 0 -32 0 -4 -112z"/>
<path d="M7152 4498 c5 -15 86 -49 92 -39 3 4 -18 17 -45 29 -28 11 -49 16
-47 10z"/>
<path d="M5212 4463 c2 -11 -2 -26 -8 -34 -17 -21 -26 -69 -14 -69 6 0 34 12
61 26 28 14 83 34 123 44 l71 19 -95 0 c-71 1 -101 5 -119 17 -21 15 -22 15
-19 -3z"/>
<path d="M5360 4297 c-36 -12 -84 -35 -107 -50 -36 -23 -43 -32 -43 -60 1 -38
23 -81 67 -131 32 -35 53 -46 53 -26 0 20 105 70 163 76 49 6 58 10 63 30 3
12 3 27 0 33 -4 5 -2 13 4 16 13 8 3 68 -17 108 -12 24 -19 27 -66 27 -28 0
-81 -11 -117 -23z"/>
<path d="M5312 3962 c17 -61 55 -122 76 -122 4 0 7 21 7 48 0 26 4 55 9 65 6
13 4 17 -13 17 -12 0 -37 6 -55 14 l-34 14 10 -36z"/>
<path d="M5411 3894 c-2 -32 21 -56 44 -48 19 8 18 8 -5 14 -15 3 -27 15 -31
30 -6 21 -7 22 -8 4z"/>
</g>
</svg>
